# xmcd CD database file
#
# Track frame offsets:
#	150
#	17497
#	38300
#	55870
#	81817
#	106140
#	122560
#	152897
#
# Disc length: 2348 seconds
#
# Revision: 1
# Processed by: cddbd v1.5.2PL0 Copyright (c) Steve Scherf et al.
# Submitted via: CDex 1.70beta2
#
DISCID=4f092a08
DTITLE=Earth Wind and Fire - All 'n' All
DYEAR=1977
DGENRE=Jazz
TTITLE0=Serpentine Fire
TTITLE1=Fantasy
TTITLE2=In The Marketplace (Interlude) - Jupiter
TTITLE3=Love's Holiday - Brazilian Rhyme (Interlude)
TTITLE4=I'll Write A Song For You
TTITLE5=Magic Mind
TTITLE6=Runnin' - Brazilian Rhyme (Interlude)
TTITLE7=Be Ever Wonderful
EXTD=YEAR: 1977
EXTT0=
EXTT1=
EXTT2=
EXTT3=
EXTT4=
EXTT5=
EXTT6=
EXTT7=
PLAYORDER=
